<?xml version="1.0" encoding="UTF-8" standalone="no"?>
<!DOCTYPE svg PUBLIC "-//W3C//DTD SVG 1.1//EN" "http://www.w3.org/Graphics/SVG/1.1/DTD/svg11.dtd">
<svg width="100%" height="100%" viewBox="0 0 400 400" version="1.1" xmlns="http://www.w3.org/2000/svg" xmlns:xlink="http://www.w3.org/1999/xlink" xml:space="preserve" xmlns:serif="http://www.serif.com/" style="fill-rule:evenodd;clip-rule:evenodd;stroke-linecap:round;stroke-linejoin:round;">
    <g id="blob.svg" transform="matrix(2.69314,0,0,2.54647,200,200)">
        <g transform="matrix(1,0,0,1,-100,-100)">
            <g transform="matrix(1,0,0,1,100,100)">
                <path d="M46.9,-61.4C59.5,-55.3 67.7,-40 70.6,-24.5C73.4,-9 70.9,6.6 66.9,22.6C62.9,38.6 57.4,55.1 46,60.3C34.6,65.6 17.3,59.7 0.2,59.4C-16.9,59.1 -33.9,64.5 -42.4,58.3C-51,52.2 -51.2,34.4 -55.5,18.7C-59.7,2.9 -67.9,-10.9 -68.9,-26.8C-69.8,-42.7 -63.5,-60.7 -50.8,-66.7C-38.1,-72.8 -19,-67 -1,-65.7C17.1,-64.3 34.2,-67.5 46.9,-61.4Z" style="fill:rgb(27,38,79);fill-rule:nonzero;"/>
            </g>
        </g>
    </g>
    <g transform="matrix(12.3237,0,0,11.6525,-2264.74,-2138.63)">
        <g transform="matrix(1,0,0,1,188,187.5)">
            <path d="M21,6L3,6" style="fill:none;fill-rule:nonzero;stroke:white;stroke-width:2px;"/>
        </g>
        <g transform="matrix(1,0,0,1,188,187.5)">
            <path d="M10,12L3,12" style="fill:none;fill-rule:nonzero;stroke:white;stroke-width:2px;"/>
        </g>
        <g transform="matrix(1,0,0,1,188,187.5)">
            <path d="M10,18L3,18" style="fill:none;fill-rule:nonzero;stroke:white;stroke-width:2px;"/>
        </g>
        <g>
            <g transform="matrix(1,0,0,1,188,187.5)">
                <circle cx="17" cy="15" r="3" style="fill:none;stroke:rgb(245,193,188);stroke-width:2px;"/>
            </g>
            <g transform="matrix(1,0,0,1,188,187.5)">
                <path d="M21,19L19.1,17.1" style="fill:none;fill-rule:nonzero;stroke:rgb(245,193,188);stroke-width:2px;"/>
            </g>
        </g>
    </g>
</svg>
